<svg viewBox="0 0 200 200" fill="none" xmlns="http://www.w3.org/2000/svg">
  <path d="M100 15C100 15 50 65 50 115C50 142.614 72.3858 165 100 165C127.614 165 150 142.614 150 115C150 85 115 50 100 15Z" fill="#F97316" />
  <path d="M100 50C100 50 70 85 70 120C70 136.569 83.4315 150 100 150C116.569 150 130 136.569 130 120C130 95 110 65 100 50Z" fill="#FEF08A" />
  <ellipse cx="85" cy="110" rx="8" ry="12" fill="#1E293B" />
  <ellipse cx="115" cy="110" rx="8" ry="12" fill="#1E293B" />
  <circle cx="83" cy="105" r="3" fill="white" />
  <circle cx="113" cy="105" r="3" fill="white" />
  <path d="M90 125Q100 135 110 125" stroke="#1E293B" stroke-width="4" stroke-linecap="round" />
  <path d="M40 120Q30 100 15 100" stroke="#F97316" stroke-width="12" stroke-linecap="round" />
  <path d="M160 120Q170 100 185 100" stroke="#F97316" stroke-width="12" stroke-linecap="round" />
  <rect x="5" y="95" width="190" height="10" rx="5" fill="#94A3B8" />
  <rect x="10" y="80" width="15" height="40" rx="4" fill="#334155" />
  <rect x="25" y="85" width="10" height="30" rx="3" fill="#475569" />
  <rect x="175" y="80" width="15" height="40" rx="4" fill="#334155" />
  <rect x="165" y="85" width="10" height="30" rx="3" fill="#475569" />
</svg>